<!-- Generated by IcoMoon.io -->
<svg version="1.1" xmlns="http://www.w3.org/2000/svg" width="1024" height="1024" viewBox="0 0 1024 1024">
<title></title>
<g id="icomoon-ignore">
</g>
<path fill="#fff" d="M512-1.088c-282.944 0-513.088 230.144-513.088 513.088s230.144 513.088 513.088 513.088 513.088-230.144 513.088-513.088-230.144-513.088-513.088-513.088zM512 990.912c-264.064 0-478.912-214.848-478.912-478.912s214.848-478.912 478.912-478.912 478.912 214.848 478.912 478.912-214.848 478.912-478.912 478.912zM577.088 305.984c0-9.44-7.648-17.088-17.088-17.088h-136.32c-0.832 0-1.504 0.352-2.304 0.48-1.824-0.064-3.52-0.48-5.376-0.48-71.2 0-129.088 49.376-129.088 110.080s57.92 110.080 129.088 110.080c9.824 0 19.296-1.12 28.512-2.912-2.4 9.312-3.712 20-2.112 31.936 1.504 11.168 5.952 21.856 11.776 32.256-11.872-2.080-24.096-3.488-36.832-3.488-88.064 0-159.712 52.96-159.712 118.080s71.648 118.080 159.712 118.080c88.096 0 159.744-52.96 159.744-118.080 0-33.472-19.136-63.584-49.504-85.088-1.216-3.072-3.040-5.92-5.984-7.904-27.136-18.368-42.336-37.888-45.216-57.984-3.2-22.368 9.984-38.72 10.656-39.552 1.44-1.696 2.432-3.616 3.104-5.6 33.152-19.936 54.976-52.704 54.976-89.856 0-29.472-13.824-56.128-36-75.904h50.88c9.44 0.064 17.088-7.616 17.088-17.056zM417.344 768.896c-69.216 0-125.536-37.664-125.536-83.904s56.32-83.904 125.536-83.904 125.568 37.664 125.568 83.904-56.352 83.904-125.568 83.904zM416 474.912c-52.32 0-94.912-34.048-94.912-75.904s42.592-75.904 94.912-75.904 94.912 34.048 94.912 75.904-42.592 75.904-94.912 75.904zM809.984 384h-74.912v-76c0-9.44-7.648-17.088-17.088-17.088s-17.088 7.648-13.984 13.088v80h-78.016c-9.44-1.088-17.088 6.56-17.088 16s7.648 17.088 17.088 16h78.016v76c0 9.44 4.576 17.088 14.016 17.088s17.088-7.648 17.088-17.088v-76h74.912c9.44 1.088 17.088-6.56 17.088-16s-7.68-17.088-17.12-16z"></path>
</svg>
