<!-- Generated by IcoMoon.io -->
<svg version="1.1" xmlns="http://www.w3.org/2000/svg" width="1024" height="1024" viewBox="0 0 1024 1024">
<title></title>
<g id="icomoon-ignore">
</g>
<path fill="#fff" d="M624.48 382.464c-21.696 0-37.76 5.472-50.336 12.384-2.016-7.168-8.64-12.416-16.448-10.848h-95.488c-9.44-1.568-17.088 6.080-14.176 16v352c-2.912 8.96 4.736 16.64 14.176 16h95.488c9.44 0.64 17.088-7.040 17.088-16.48l-0.032-212.736c-0.032-0.096-0.384-10.272 6.048-17.28 5.152-5.568 14.016-8.416 26.272-8.416 20.416 0 29.504 8.352 32.896 27.040v211.392c-3.36 9.44 4.288 17.12 13.728 16.48h100.64c9.44 0.64 17.088-7.040 13.696-16.48v-218.496c3.36-111.104-75.776-150.56-143.552-150.56zM737.216 736h-66.432v-195.872c0-37.792-24.416-61.216-63.68-61.216-22.208 0-39.488 6.528-51.392 19.392-16.544 17.92-15.264 40.64-11.712 45.696v192h-64.704v-319.36h61.312v10.752c0 6.496 3.68 12.48 9.536 15.328s12.8 2.144 17.984-1.792l4.48-3.456c12.96-10.208 26.368-20.8 51.904-20.8 26.432 0 112.736 8.416 112.736 116.384v202.944zM352 222.912c-35.904 0-65.088 29.184-65.088 65.088s29.184 65.088 65.088 65.088 65.088-29.184 65.088-65.088-29.184-65.088-65.088-65.088zM352 318.912c-17.024 0-30.912-13.888-30.912-30.912s13.888-30.912 30.912-30.912 30.912 13.888 30.912 30.912-13.888 30.912-30.912 30.912zM397.696 382.432h-94.976c-9.44 0-17.088 7.648-14.72 17.568v352c-2.368 8.96 5.28 16.64 14.72 16h94.976c9.44 0.64 17.088-7.040 17.088-16.48v-352c0-9.44-7.648-17.088-17.088-17.088zM384 736h-64.192v-319.36h64.192v319.36zM512-1.088c-282.944 0-513.088 230.144-513.088 513.088s230.144 513.088 513.088 513.088 513.088-230.144 513.088-513.088-230.144-513.088-513.088-513.088zM512 990.912c-264.064 0-478.912-214.848-478.912-478.912s214.848-478.912 478.912-478.912 478.912 214.848 478.912 478.912-214.848 478.912-478.912 478.912z"></path>
</svg>
